G04*
G04 #@! TF.GenerationSoftware,Altium Limited,Altium Designer,19.0.15 (446)*
G04*
G04 Layer_Physical_Order=1*
G04 Layer_Color=255*
%FSLAX44Y44*%
%MOMM*%
G71*
G01*
G75*
%ADD12C,0.3000*%
%ADD16C,0.2540*%
%ADD18R,1.0000X0.8000*%
%ADD19R,0.7000X1.5000*%
%ADD20R,2.5000X0.5000*%
%ADD21R,2.5000X2.0000*%
%ADD22R,1.9000X2.4000*%
%ADD23R,1.3500X1.5500*%
%ADD24R,1.8000X1.1700*%
%ADD25R,1.3500X1.9000*%
%ADD26R,1.0000X1.2000*%
%ADD27R,1.1000X0.8500*%
%ADD28R,1.1000X0.8750*%
%ADD29R,1.1000X0.7500*%
%ADD30R,1.4732X0.5080*%
%ADD31R,0.5080X1.4732*%
%ADD32R,1.1000X1.7000*%
%ADD33R,0.3556X1.4732*%
%ADD34R,1.0000X0.5000*%
%ADD35R,1.7000X1.1000*%
%ADD58C,0.5000*%
%ADD59C,0.9000*%
%ADD60C,1.5240*%
%ADD61C,6.1500*%
%ADD62C,2.3500*%
%ADD63C,0.7112*%
G36*
X150984Y-1270D02*
X141443Y-10811D01*
X140601Y-12071D01*
X140305Y-13558D01*
Y-20442D01*
X140601Y-21929D01*
X141443Y-23189D01*
X141827Y-23573D01*
X141460Y-24460D01*
X141460D01*
Y-44540D01*
X153540D01*
Y-24646D01*
X153540Y-24646D01*
X153540Y-24646D01*
X154412Y-23860D01*
X154528Y-23780D01*
X156050Y-23149D01*
X157521Y-22021D01*
X158649Y-20550D01*
X159359Y-18838D01*
X159601Y-17000D01*
X159359Y-15162D01*
X158649Y-13450D01*
X157521Y-11979D01*
X156050Y-10851D01*
X154733Y-10305D01*
X154274Y-8968D01*
X155747Y-7495D01*
X193100D01*
X193586Y-8668D01*
X189753Y-12501D01*
X188911Y-13761D01*
X188615Y-15248D01*
Y-24460D01*
X186460D01*
Y-43381D01*
X173206D01*
X168540Y-38715D01*
Y-24460D01*
X156460D01*
Y-44540D01*
X162715D01*
X168587Y-50413D01*
X169924Y-51305D01*
X171500Y-51619D01*
X184960D01*
Y-60230D01*
X193000D01*
X201040D01*
Y-57311D01*
X202213Y-56825D01*
X202801Y-57413D01*
X204137Y-58305D01*
X205713Y-58619D01*
X211960D01*
Y-72540D01*
X228040D01*
Y-68925D01*
X228862Y-68251D01*
X237751D01*
Y-69716D01*
X247657D01*
Y-72256D01*
X237751D01*
Y-74995D01*
X214643D01*
X213067Y-75309D01*
X211731Y-76202D01*
X210301Y-77631D01*
X203790D01*
Y-73710D01*
X201281D01*
X201040Y-72540D01*
X201040D01*
Y-62770D01*
X193000D01*
X184960D01*
Y-72540D01*
X187469D01*
X187710Y-73710D01*
X187710D01*
Y-93321D01*
X176790D01*
Y-73710D01*
X160710D01*
Y-80631D01*
X150955D01*
X145662Y-75338D01*
X144325Y-74445D01*
X142749Y-74131D01*
X117150D01*
X117102Y-74060D01*
X117781Y-72790D01*
X130790D01*
Y-50710D01*
X120246D01*
X119750Y-50611D01*
X109628D01*
X107077Y-48060D01*
X107603Y-46790D01*
X115540D01*
Y-30710D01*
X93460D01*
Y-33765D01*
X92446D01*
X90480Y-34156D01*
X88813Y-35270D01*
X86721Y-37361D01*
X62018D01*
X60959Y-36580D01*
X60805Y-36153D01*
X60609Y-34662D01*
X59899Y-32950D01*
X58771Y-31479D01*
X57300Y-30351D01*
X55588Y-29641D01*
X53750Y-29399D01*
X51912Y-29641D01*
X50200Y-30351D01*
X48729Y-31479D01*
X47601Y-32950D01*
X46891Y-34662D01*
X46649Y-36500D01*
X46891Y-38338D01*
X47601Y-40050D01*
X48729Y-41521D01*
X50200Y-42649D01*
X51493Y-43185D01*
X51942Y-44532D01*
X34857Y-61617D01*
X30766D01*
X28800Y-62009D01*
X27133Y-63122D01*
X1866Y-88389D01*
X1270Y-89281D01*
X0Y-88896D01*
Y0D01*
X118460D01*
Y-12540D01*
X133540D01*
Y0D01*
X150458D01*
X150984Y-1270D01*
D02*
G37*
G36*
X63810Y-48995D02*
Y-61185D01*
X62540Y-61571D01*
X61895Y-60605D01*
X59878Y-59258D01*
X58770Y-59037D01*
Y-65000D01*
Y-70963D01*
X59878Y-70742D01*
X61895Y-69395D01*
X62540Y-68429D01*
X63810Y-68815D01*
Y-73230D01*
X93890D01*
Y-68339D01*
X95063Y-67853D01*
X108862Y-81651D01*
X108533Y-82921D01*
X64190D01*
X62223Y-83312D01*
X61333Y-83907D01*
X60308Y-83065D01*
X60609Y-82338D01*
X60851Y-80500D01*
X60609Y-78662D01*
X59899Y-76950D01*
X58771Y-75479D01*
X57300Y-74351D01*
X55588Y-73641D01*
X53750Y-73399D01*
X51912Y-73641D01*
X50200Y-74351D01*
X48729Y-75479D01*
X47601Y-76950D01*
X46891Y-78662D01*
X46649Y-80500D01*
X46891Y-82338D01*
X47601Y-84050D01*
X48729Y-85521D01*
X50200Y-86649D01*
X51912Y-87359D01*
X53750Y-87601D01*
X55588Y-87359D01*
X55997Y-87189D01*
X56717Y-88266D01*
X50826Y-94156D01*
X49712Y-95823D01*
X49321Y-97790D01*
Y-100189D01*
X40263Y-109247D01*
X39090Y-108761D01*
Y-90560D01*
X15889D01*
X15403Y-89387D01*
X32895Y-71895D01*
X36985D01*
X38952Y-71504D01*
X40619Y-70390D01*
X62540Y-48469D01*
X63810Y-48995D01*
D02*
G37*
G36*
X469881Y-45493D02*
Y-80728D01*
X468708Y-81214D01*
X445803Y-58310D01*
X446329Y-57040D01*
X451980D01*
Y-45000D01*
X453250D01*
Y-43730D01*
X462540D01*
Y-39811D01*
X463713Y-39325D01*
X469881Y-45493D01*
D02*
G37*
G36*
X600000Y-503500D02*
X0D01*
Y-467376D01*
X1270Y-466991D01*
X1866Y-467883D01*
X9960Y-475977D01*
Y-490790D01*
X18772D01*
X28366Y-500384D01*
X30033Y-501498D01*
X32000Y-501889D01*
X191750D01*
X193717Y-501498D01*
X193717Y-501498D01*
X193717Y-501498D01*
X195384Y-500384D01*
X205128Y-490639D01*
X206000D01*
X206496Y-490540D01*
X209773D01*
X219866Y-500634D01*
X221534Y-501748D01*
X223500Y-502139D01*
X382500D01*
X384466Y-501748D01*
X386133Y-500634D01*
X396129Y-490639D01*
X397000D01*
X397496Y-490540D01*
X408040D01*
Y-468460D01*
X391960D01*
Y-480802D01*
X390366Y-481866D01*
X380371Y-491861D01*
X225629D01*
X217040Y-483273D01*
Y-468460D01*
X200960D01*
Y-480801D01*
X199366Y-481866D01*
X189621Y-491611D01*
X53970D01*
X53040Y-490790D01*
Y-484889D01*
X86200D01*
X88167Y-484497D01*
X89834Y-483383D01*
X96102Y-477115D01*
X98170Y-477972D01*
X101901Y-478463D01*
X105631Y-477972D01*
X109107Y-476532D01*
X112092Y-474241D01*
X114383Y-471256D01*
X115823Y-467780D01*
X116314Y-464050D01*
X115823Y-460319D01*
X114383Y-456843D01*
X112092Y-453858D01*
X109107Y-451567D01*
X105631Y-450127D01*
X101901Y-449636D01*
X98170Y-450127D01*
X94694Y-451567D01*
X91709Y-453858D01*
X89418Y-456843D01*
X87978Y-460319D01*
X87487Y-464050D01*
X87978Y-467780D01*
X88835Y-469848D01*
X84072Y-474611D01*
X53040D01*
Y-468710D01*
X44227D01*
X26040Y-450522D01*
Y-436960D01*
X23654D01*
Y-418430D01*
X26570D01*
Y-408350D01*
X19526D01*
X19030Y-408251D01*
X18515D01*
X18018Y-408350D01*
X11490D01*
X10639Y-407433D01*
Y-389540D01*
X16230D01*
Y-378500D01*
Y-367460D01*
X10639D01*
Y-356540D01*
X26040D01*
Y-344727D01*
X35690Y-335077D01*
X36960Y-335603D01*
Y-356540D01*
X53040D01*
Y-350638D01*
X120922D01*
X130100Y-359816D01*
X129753Y-362450D01*
X130102Y-365102D01*
X131126Y-367574D01*
X132754Y-369696D01*
X133921Y-370591D01*
X133490Y-371861D01*
X121111D01*
X120680Y-370591D01*
X121847Y-369696D01*
X123475Y-367574D01*
X124499Y-365102D01*
X124681Y-363720D01*
X114600D01*
X104520D01*
X104702Y-365102D01*
X105726Y-367574D01*
X107354Y-369696D01*
X108521Y-370591D01*
X108090Y-371861D01*
X81750D01*
X79784Y-372252D01*
X78117Y-373366D01*
X50062Y-401420D01*
X48889Y-400934D01*
Y-389540D01*
X52540D01*
Y-367460D01*
X36460D01*
Y-389540D01*
X38612D01*
Y-408210D01*
X35460D01*
Y-418290D01*
X38861D01*
Y-436960D01*
X36960D01*
Y-459040D01*
X53040D01*
Y-436960D01*
X49139D01*
Y-418290D01*
X50540D01*
Y-415477D01*
X83879Y-382138D01*
X112164D01*
X112411Y-383384D01*
X112140Y-383496D01*
X107673Y-386234D01*
X103688Y-389637D01*
X100285Y-393622D01*
X97547Y-398090D01*
X95542Y-402931D01*
X94319Y-408026D01*
X93908Y-413250D01*
X94319Y-418474D01*
X95542Y-423569D01*
X97547Y-428410D01*
X100285Y-432878D01*
X103688Y-436862D01*
X107673Y-440265D01*
X112140Y-443003D01*
X116982Y-445008D01*
X122077Y-446231D01*
X127301Y-446643D01*
X132524Y-446231D01*
X137619Y-445008D01*
X142461Y-443003D01*
X146928Y-440265D01*
X149818Y-437797D01*
X151014Y-438446D01*
X150987Y-438650D01*
X151478Y-442380D01*
X152918Y-445856D01*
X155209Y-448841D01*
X158194Y-451132D01*
X161670Y-452572D01*
X164130Y-452896D01*
Y-438650D01*
Y-424403D01*
X161670Y-424727D01*
X159598Y-425586D01*
X158626Y-424614D01*
X159059Y-423569D01*
X160282Y-418474D01*
X160693Y-413250D01*
X160282Y-408026D01*
X159059Y-402931D01*
X157054Y-398090D01*
X154316Y-393622D01*
X150913Y-389637D01*
X146928Y-386234D01*
X142461Y-383496D01*
X142190Y-383384D01*
X142437Y-382138D01*
X163500D01*
X165467Y-381747D01*
X167134Y-380633D01*
X186133Y-361634D01*
X187247Y-359967D01*
X187638Y-358000D01*
Y-342379D01*
X212128Y-317889D01*
X391750D01*
X391810Y-317877D01*
X392435Y-319047D01*
X339112Y-372371D01*
X336301D01*
X335870Y-371101D01*
X337636Y-369746D01*
X339264Y-367624D01*
X340288Y-365152D01*
X340638Y-362500D01*
X340288Y-359848D01*
X339264Y-357376D01*
X337636Y-355254D01*
X335514Y-353625D01*
X333042Y-352601D01*
X330390Y-352252D01*
X327756Y-352599D01*
X317024Y-341867D01*
X315357Y-340753D01*
X313390Y-340362D01*
X244040D01*
Y-334460D01*
X227960D01*
Y-356540D01*
X244040D01*
Y-350639D01*
X311262D01*
X320489Y-359866D01*
X320142Y-362500D01*
X320491Y-365152D01*
X321515Y-367624D01*
X323144Y-369746D01*
X324909Y-371101D01*
X324478Y-372371D01*
X310901D01*
X310470Y-371101D01*
X312236Y-369746D01*
X313864Y-367624D01*
X314888Y-365152D01*
X315070Y-363770D01*
X304990D01*
X294909D01*
X295091Y-365152D01*
X296115Y-367624D01*
X297744Y-369746D01*
X299509Y-371101D01*
X299078Y-372371D01*
X270990D01*
X269023Y-372762D01*
X267356Y-373876D01*
X240437Y-400796D01*
X239263Y-400310D01*
Y-389790D01*
X242790D01*
Y-367710D01*
X226710D01*
Y-389790D01*
X228986D01*
Y-407460D01*
X225960D01*
Y-417540D01*
X229361D01*
Y-435710D01*
X227460D01*
Y-457790D01*
X243540D01*
Y-435710D01*
X239639D01*
Y-417540D01*
X241040D01*
Y-414727D01*
X273118Y-382649D01*
X301565D01*
X301923Y-383918D01*
X298062Y-386284D01*
X294077Y-389688D01*
X290674Y-393672D01*
X287936Y-398140D01*
X285931Y-402981D01*
X284708Y-408076D01*
X284297Y-413300D01*
X284708Y-418524D01*
X285931Y-423619D01*
X287936Y-428460D01*
X290674Y-432928D01*
X294077Y-436912D01*
X298062Y-440315D01*
X302530Y-443053D01*
X307371Y-445059D01*
X312466Y-446282D01*
X317690Y-446693D01*
X322914Y-446282D01*
X328009Y-445059D01*
X332850Y-443053D01*
X337318Y-440315D01*
X340208Y-437847D01*
X341403Y-438496D01*
X341376Y-438700D01*
X341868Y-442430D01*
X343307Y-445907D01*
X345598Y-448892D01*
X348583Y-451182D01*
X352059Y-452622D01*
X354520Y-452946D01*
Y-438700D01*
Y-424454D01*
X352059Y-424778D01*
X349988Y-425636D01*
X349016Y-424664D01*
X349448Y-423619D01*
X350672Y-418524D01*
X351083Y-413300D01*
X350672Y-408076D01*
X349448Y-402981D01*
X347443Y-398140D01*
X344705Y-393672D01*
X341302Y-389688D01*
X337318Y-386284D01*
X333457Y-383918D01*
X333815Y-382649D01*
X341240D01*
X343207Y-382257D01*
X344874Y-381143D01*
X391039Y-334979D01*
X391960Y-335853D01*
Y-357900D01*
X408040D01*
Y-346087D01*
X412884Y-341244D01*
X413998Y-339576D01*
X414389Y-337610D01*
Y-333032D01*
X414992Y-332129D01*
X415466Y-329750D01*
X414992Y-327372D01*
X413645Y-325355D01*
X413345Y-325155D01*
X413730Y-323885D01*
X496305D01*
X497792Y-323589D01*
X499052Y-322747D01*
X564707Y-257092D01*
X565550Y-255831D01*
X565845Y-254345D01*
Y-189448D01*
X565550Y-187962D01*
X564707Y-186702D01*
X524259Y-146253D01*
X522999Y-145411D01*
X521512Y-145115D01*
X507609D01*
X492885Y-130391D01*
Y-108860D01*
X494058Y-108374D01*
X588381Y-202697D01*
Y-320852D01*
X536861Y-372371D01*
X526802D01*
X526371Y-371101D01*
X528136Y-369746D01*
X529765Y-367624D01*
X530789Y-365152D01*
X531138Y-362500D01*
X530789Y-359848D01*
X529765Y-357376D01*
X528136Y-355254D01*
X526014Y-353625D01*
X523543Y-352601D01*
X520890Y-352252D01*
X518256Y-352599D01*
X508884Y-343226D01*
X507216Y-342113D01*
X505250Y-341721D01*
X435040D01*
Y-335820D01*
X418960D01*
Y-357900D01*
X435040D01*
Y-351999D01*
X490974D01*
X491227Y-353269D01*
X490367Y-353625D01*
X488244Y-355254D01*
X486615Y-357376D01*
X485592Y-359848D01*
X485410Y-361230D01*
X495490D01*
Y-363770D01*
X485410D01*
X485592Y-365152D01*
X486615Y-367624D01*
X488244Y-369746D01*
X490010Y-371101D01*
X489579Y-372371D01*
X462490D01*
X460524Y-372762D01*
X458857Y-373876D01*
X431187Y-401546D01*
X430014Y-401060D01*
Y-389290D01*
X433290D01*
Y-367210D01*
X417210D01*
Y-389290D01*
X419737D01*
Y-407960D01*
X416960D01*
Y-418040D01*
X420236D01*
Y-436210D01*
X418210D01*
Y-458290D01*
X434290D01*
Y-436210D01*
X430514D01*
Y-418040D01*
X432040D01*
Y-415228D01*
X464619Y-382649D01*
X492065D01*
X492423Y-383918D01*
X488562Y-386284D01*
X484578Y-389688D01*
X481175Y-393672D01*
X478437Y-398140D01*
X476432Y-402981D01*
X475209Y-408076D01*
X474797Y-413300D01*
X475209Y-418524D01*
X476432Y-423619D01*
X478437Y-428460D01*
X481175Y-432928D01*
X484578Y-436912D01*
X488562Y-440315D01*
X493030Y-443053D01*
X497871Y-445059D01*
X502966Y-446282D01*
X508190Y-446693D01*
X513414Y-446282D01*
X518509Y-445059D01*
X523350Y-443053D01*
X527818Y-440315D01*
X530708Y-437847D01*
X531904Y-438496D01*
X531877Y-438700D01*
X532368Y-442430D01*
X533808Y-445907D01*
X536099Y-448892D01*
X539084Y-451182D01*
X542560Y-452622D01*
X545020Y-452946D01*
Y-438700D01*
Y-424454D01*
X542560Y-424778D01*
X540488Y-425636D01*
X539516Y-424664D01*
X539949Y-423619D01*
X541172Y-418524D01*
X541583Y-413300D01*
X541172Y-408076D01*
X539949Y-402981D01*
X537944Y-398140D01*
X535206Y-393672D01*
X531803Y-389688D01*
X527818Y-386284D01*
X523957Y-383918D01*
X524315Y-382649D01*
X538990D01*
X540956Y-382257D01*
X542623Y-381143D01*
X596134Y-327634D01*
X597248Y-325967D01*
X597639Y-324000D01*
X597248Y-322034D01*
X596619Y-321093D01*
Y-200991D01*
X596306Y-199414D01*
X595413Y-198078D01*
X478119Y-80784D01*
Y-43787D01*
X477806Y-42210D01*
X476913Y-40874D01*
X464586Y-28547D01*
X463250Y-27654D01*
X461673Y-27341D01*
X461618D01*
X459609Y-25333D01*
X460095Y-24159D01*
X489517D01*
X527924Y-62566D01*
X527745Y-63156D01*
X527417Y-63855D01*
X525546Y-65105D01*
X524199Y-67121D01*
X523726Y-69500D01*
X524199Y-71878D01*
X525546Y-73895D01*
X527562Y-75242D01*
X529941Y-75715D01*
X530266Y-75651D01*
X537878Y-83263D01*
X539215Y-84156D01*
X540791Y-84469D01*
X553460D01*
Y-90080D01*
X561500D01*
X569540D01*
Y-87140D01*
Y-76140D01*
Y-65140D01*
Y-54265D01*
Y-43140D01*
Y-29560D01*
X553460D01*
Y-41648D01*
X552190Y-42174D01*
X538342Y-28325D01*
X538406Y-28000D01*
X537933Y-25621D01*
X536586Y-23605D01*
X534570Y-22258D01*
X532191Y-21785D01*
X529813Y-22258D01*
X527796Y-23605D01*
X526449Y-25621D01*
X525976Y-28000D01*
X526449Y-30378D01*
X527796Y-32395D01*
X529813Y-33742D01*
X532191Y-34215D01*
X532516Y-34151D01*
X548587Y-50222D01*
X549924Y-51114D01*
X551500Y-51428D01*
X553460D01*
Y-54231D01*
X544247D01*
X536842Y-46825D01*
X536907Y-46500D01*
X536433Y-44121D01*
X535086Y-42105D01*
X533070Y-40758D01*
X530691Y-40285D01*
X528312Y-40758D01*
X526296Y-42105D01*
X524949Y-44121D01*
X524613Y-45808D01*
X523235Y-46226D01*
X496722Y-19713D01*
X497208Y-18540D01*
X507540D01*
Y-1460D01*
X492460D01*
Y-15166D01*
X491478Y-15971D01*
X491223Y-15921D01*
X470540D01*
Y-1460D01*
X455460D01*
Y-12907D01*
X454478Y-13712D01*
X454029Y-13623D01*
X376948D01*
X365913Y-2587D01*
X364576Y-1694D01*
X363000Y-1381D01*
X358753D01*
X358670Y-1270D01*
X359310Y0D01*
X600000D01*
Y-503500D01*
D02*
G37*
G36*
X141698Y-94065D02*
X141201Y-95210D01*
X126460D01*
Y-117290D01*
X126210Y-117360D01*
Y-139440D01*
X136465D01*
X138177Y-141152D01*
X139513Y-142045D01*
X141089Y-142359D01*
X171523D01*
X173100Y-142045D01*
X174436Y-141152D01*
X178769Y-136819D01*
X193350D01*
X193747Y-136740D01*
X213390D01*
Y-133743D01*
X216426D01*
X217024Y-134863D01*
X216851Y-135122D01*
X216725Y-135758D01*
X209273Y-143210D01*
X200460D01*
Y-165290D01*
X216540D01*
Y-150477D01*
X223477Y-143540D01*
X224972Y-143242D01*
X226989Y-141895D01*
X228336Y-139879D01*
X228809Y-137500D01*
X228336Y-135122D01*
X228163Y-134863D01*
X228762Y-133743D01*
X265493D01*
X265493Y-133743D01*
X265493Y-133743D01*
X266536Y-133535D01*
X267459Y-133352D01*
X267459Y-133351D01*
X267460Y-133351D01*
X268479Y-132670D01*
X269126Y-132238D01*
X269126Y-132238D01*
X269127Y-132237D01*
X272333Y-129031D01*
X272913Y-128162D01*
X273446Y-127364D01*
X273446Y-127364D01*
X273447Y-127364D01*
X273643Y-126375D01*
X273697Y-126104D01*
X275597D01*
Y-116198D01*
X278137D01*
Y-126104D01*
X281550D01*
Y-129000D01*
X297594D01*
Y-131370D01*
X296758Y-132621D01*
X296285Y-135000D01*
X296758Y-137379D01*
X298105Y-139395D01*
X300121Y-140742D01*
X302500Y-141215D01*
X304879Y-140742D01*
X306895Y-139395D01*
X308242Y-137379D01*
X308715Y-135000D01*
X308242Y-132621D01*
X306955Y-130695D01*
X307042Y-130171D01*
X307316Y-129359D01*
X307984Y-129263D01*
X314291Y-135570D01*
X314226Y-135895D01*
X314699Y-138274D01*
X316046Y-140290D01*
X318063Y-141637D01*
X320441Y-142111D01*
X322820Y-141637D01*
X324836Y-140290D01*
X326184Y-138274D01*
X326657Y-135895D01*
X326184Y-133517D01*
X324836Y-131500D01*
X322995Y-130270D01*
X323020Y-129557D01*
X323207Y-129000D01*
X339408D01*
X341250Y-127158D01*
Y-120083D01*
X356302D01*
X357788Y-119787D01*
X359049Y-118945D01*
X378575Y-99418D01*
X381124D01*
Y-105202D01*
X367087Y-119239D01*
X366194Y-120576D01*
X365881Y-122152D01*
Y-154294D01*
X340954Y-179221D01*
X339137D01*
X338510Y-177951D01*
X339375Y-176824D01*
X340399Y-174352D01*
X340748Y-171700D01*
X340399Y-169047D01*
X339375Y-166576D01*
X337747Y-164454D01*
X335624Y-162825D01*
X333153Y-161801D01*
X330500Y-161452D01*
X327867Y-161799D01*
X316684Y-150616D01*
X315017Y-149502D01*
X313051Y-149111D01*
X243540D01*
Y-143210D01*
X227460D01*
Y-165290D01*
X243540D01*
Y-159389D01*
X310922D01*
X320600Y-169066D01*
X320253Y-171700D01*
X320602Y-174352D01*
X321626Y-176824D01*
X322491Y-177951D01*
X321865Y-179221D01*
X313737D01*
X313110Y-177951D01*
X313975Y-176824D01*
X314999Y-174352D01*
X315181Y-172970D01*
X305100D01*
X295020D01*
X295202Y-174352D01*
X296226Y-176824D01*
X297091Y-177951D01*
X296465Y-179221D01*
X259981D01*
X249076Y-168316D01*
X247409Y-167202D01*
X245442Y-166811D01*
X167550D01*
X165584Y-167202D01*
X163917Y-168316D01*
X150412Y-181821D01*
X145912D01*
X145481Y-180551D01*
X147247Y-179196D01*
X148875Y-177073D01*
X149899Y-174602D01*
X150248Y-171950D01*
X149899Y-169297D01*
X148875Y-166826D01*
X147247Y-164703D01*
X145124Y-163075D01*
X142653Y-162051D01*
X140000Y-161702D01*
X137367Y-162049D01*
X126934Y-151616D01*
X125267Y-150503D01*
X123301Y-150111D01*
X53040D01*
Y-144210D01*
X38103D01*
X37577Y-142940D01*
X38384Y-142134D01*
X39498Y-140466D01*
X39526Y-140325D01*
X40492Y-138878D01*
X40965Y-136500D01*
X40492Y-134121D01*
X39145Y-132105D01*
X37129Y-130758D01*
X35213Y-130377D01*
X34901Y-129058D01*
X35161Y-128884D01*
X58094Y-105951D01*
X59208Y-104284D01*
X59599Y-102318D01*
Y-99918D01*
X62637Y-96880D01*
X63810Y-97366D01*
Y-115640D01*
X93890D01*
Y-93199D01*
X141005D01*
X141698Y-94065D01*
D02*
G37*
G36*
X431881Y-41706D02*
Y-65000D01*
X432194Y-66576D01*
X433087Y-67913D01*
X456661Y-91487D01*
X456175Y-92660D01*
X454520D01*
Y-103430D01*
X462540D01*
Y-99024D01*
X463713Y-98538D01*
X470881Y-105706D01*
Y-189794D01*
X467087Y-193587D01*
X466194Y-194924D01*
X465881Y-196500D01*
Y-235000D01*
X466194Y-236576D01*
X467087Y-237913D01*
X487609Y-258434D01*
X486903Y-259490D01*
X486631Y-259377D01*
X482901Y-258886D01*
X479170Y-259377D01*
X475694Y-260817D01*
X472709Y-263108D01*
X470418Y-266093D01*
X468978Y-269569D01*
X468487Y-273300D01*
X468978Y-277030D01*
X469835Y-279098D01*
X466072Y-282861D01*
X433040D01*
Y-276960D01*
X424728D01*
X407540Y-259773D01*
Y-244960D01*
X405278D01*
Y-226680D01*
X408320D01*
Y-216600D01*
X401276D01*
X400780Y-216501D01*
X400140D01*
X399643Y-216600D01*
X393240D01*
Y-226680D01*
X395001D01*
Y-244960D01*
X391460D01*
Y-267040D01*
X400273D01*
X416862Y-283629D01*
Y-285000D01*
X416960Y-285495D01*
Y-299040D01*
X433040D01*
Y-293139D01*
X468200D01*
X470167Y-292748D01*
X471834Y-291634D01*
X477102Y-286365D01*
X479170Y-287222D01*
X482901Y-287713D01*
X486631Y-287222D01*
X490107Y-285782D01*
X493092Y-283491D01*
X495383Y-280506D01*
X496823Y-277030D01*
X497314Y-273300D01*
X496823Y-269569D01*
X496710Y-269297D01*
X497766Y-268591D01*
X507175Y-278000D01*
X479813Y-305361D01*
X394000D01*
X392034Y-305753D01*
X390366Y-306866D01*
X389622Y-307611D01*
X387208D01*
X386823Y-306341D01*
X387134Y-306134D01*
X394128Y-299139D01*
X395000D01*
X395000Y-299139D01*
X395001Y-299139D01*
X395497Y-299040D01*
X406040D01*
Y-276960D01*
X389960D01*
Y-289302D01*
X388366Y-290367D01*
X381372Y-297361D01*
X244040D01*
Y-293139D01*
X277700D01*
X279667Y-292748D01*
X281334Y-291634D01*
X286602Y-286365D01*
X288670Y-287222D01*
X292400Y-287713D01*
X296131Y-287222D01*
X299607Y-285782D01*
X302592Y-283491D01*
X304883Y-280506D01*
X306323Y-277030D01*
X306814Y-273300D01*
X306467Y-270669D01*
X307258Y-269928D01*
X307638Y-269828D01*
X362855D01*
X364822Y-269437D01*
X366489Y-268323D01*
X387134Y-247678D01*
X388248Y-246011D01*
X388639Y-244044D01*
X388248Y-242078D01*
X387619Y-241138D01*
Y-131819D01*
X400777Y-118662D01*
X401670Y-117325D01*
X401811Y-116616D01*
X408469D01*
X408523Y-116887D01*
X409365Y-118147D01*
X421123Y-129905D01*
X422383Y-130747D01*
X423870Y-131042D01*
X450891D01*
X461115Y-141267D01*
Y-149361D01*
X459995Y-149959D01*
X459320Y-149508D01*
X456941Y-149035D01*
X454563Y-149508D01*
X454033Y-149861D01*
X435040D01*
Y-143960D01*
X418960D01*
Y-166040D01*
X435040D01*
Y-160139D01*
X453285D01*
X454563Y-160993D01*
X456941Y-161466D01*
X459320Y-160993D01*
X459995Y-160541D01*
X461115Y-161140D01*
Y-181755D01*
X460074Y-181962D01*
X458406Y-183076D01*
X433062Y-208420D01*
X431889Y-207934D01*
Y-198040D01*
X434790D01*
Y-175960D01*
X418710D01*
Y-198040D01*
X421612D01*
Y-216460D01*
X417210D01*
Y-226540D01*
X420486D01*
Y-244960D01*
X418460D01*
Y-267040D01*
X434540D01*
Y-244960D01*
X430764D01*
Y-226540D01*
X432290D01*
Y-223727D01*
X465674Y-190343D01*
X466788Y-188676D01*
X467091Y-187153D01*
X467747Y-186497D01*
X468589Y-185236D01*
X468589Y-185236D01*
X468885Y-183750D01*
Y-139658D01*
X468589Y-138171D01*
X467747Y-136911D01*
X455247Y-124411D01*
X453986Y-123569D01*
X452500Y-123273D01*
X425479D01*
X419995Y-117789D01*
X420481Y-116616D01*
X423288D01*
Y-106710D01*
Y-96804D01*
X421089D01*
X421035Y-96533D01*
X420193Y-95273D01*
X404849Y-79929D01*
X404988Y-79223D01*
X405322Y-78659D01*
X406562D01*
X408138Y-78345D01*
X409474Y-77453D01*
X427193Y-59734D01*
X428086Y-58397D01*
X428126Y-58196D01*
X428876D01*
Y-40361D01*
X430050Y-39875D01*
X431881Y-41706D01*
D02*
G37*
G36*
X36960Y-145353D02*
Y-166290D01*
X53040D01*
Y-160389D01*
X121172D01*
X130100Y-169316D01*
X129753Y-171950D01*
X130102Y-174602D01*
X131126Y-177073D01*
X132754Y-179196D01*
X134520Y-180551D01*
X134089Y-181821D01*
X120512D01*
X120081Y-180551D01*
X121847Y-179196D01*
X123475Y-177073D01*
X124499Y-174602D01*
X124681Y-173220D01*
X114600D01*
X104520D01*
X104702Y-174602D01*
X105726Y-177073D01*
X107354Y-179196D01*
X109120Y-180551D01*
X108689Y-181821D01*
X86424D01*
X84458Y-182212D01*
X82791Y-183326D01*
X50812Y-215304D01*
X49639Y-214818D01*
Y-199290D01*
X53040D01*
Y-177210D01*
X36960D01*
Y-199290D01*
X39361D01*
Y-217210D01*
X36460D01*
Y-227290D01*
X39361D01*
Y-245210D01*
X36960D01*
Y-267290D01*
X53040D01*
Y-245210D01*
X49639D01*
Y-230638D01*
X50768Y-229883D01*
X88553Y-192098D01*
X111175D01*
X111533Y-193368D01*
X107673Y-195734D01*
X103688Y-199137D01*
X100285Y-203122D01*
X97547Y-207590D01*
X95542Y-212431D01*
X94319Y-217526D01*
X93908Y-222750D01*
X94319Y-227973D01*
X95542Y-233069D01*
X97547Y-237910D01*
X100285Y-242377D01*
X103688Y-246362D01*
X107673Y-249765D01*
X112140Y-252503D01*
X116982Y-254508D01*
X122077Y-255732D01*
X127301Y-256143D01*
X132524Y-255732D01*
X137619Y-254508D01*
X142461Y-252503D01*
X146928Y-249765D01*
X149818Y-247297D01*
X151014Y-247946D01*
X150987Y-248150D01*
X151478Y-251880D01*
X152918Y-255356D01*
X155209Y-258341D01*
X158194Y-260632D01*
X161670Y-262072D01*
X164130Y-262396D01*
Y-248150D01*
Y-233904D01*
X161670Y-234227D01*
X159598Y-235086D01*
X158626Y-234114D01*
X159059Y-233069D01*
X160282Y-227973D01*
X160693Y-222750D01*
X160282Y-217526D01*
X159059Y-212431D01*
X157054Y-207590D01*
X154316Y-203122D01*
X150913Y-199137D01*
X146928Y-195734D01*
X143068Y-193368D01*
X143426Y-192098D01*
X152540D01*
X154506Y-191707D01*
X156174Y-190593D01*
X169679Y-177088D01*
X200460D01*
Y-185230D01*
X208500D01*
X216540D01*
Y-177088D01*
X227460D01*
Y-197540D01*
X229861D01*
Y-215960D01*
X226960D01*
Y-226040D01*
X230111D01*
Y-244960D01*
X227960D01*
Y-267040D01*
X244040D01*
Y-261649D01*
X282135D01*
X282544Y-262851D01*
X282209Y-263108D01*
X279918Y-266093D01*
X278478Y-269569D01*
X277987Y-273300D01*
X278478Y-277030D01*
X279335Y-279098D01*
X275571Y-282861D01*
X244040D01*
Y-276960D01*
X235228D01*
X217040Y-258773D01*
Y-244960D01*
X214903D01*
Y-226180D01*
X218070D01*
Y-216100D01*
X211026D01*
X210530Y-216001D01*
X209765D01*
X209268Y-216100D01*
X202990D01*
Y-226180D01*
X204626D01*
Y-244960D01*
X200960D01*
Y-267040D01*
X210773D01*
X227960Y-284227D01*
Y-297361D01*
X222628D01*
X217040Y-291773D01*
Y-276960D01*
X200960D01*
Y-289302D01*
X199367Y-290366D01*
X185871Y-303861D01*
X37878D01*
X26040Y-292023D01*
Y-277210D01*
X17227D01*
X10639Y-270621D01*
Y-267290D01*
X19773D01*
X36960Y-284477D01*
Y-299290D01*
X53040D01*
Y-293389D01*
X87200D01*
X89166Y-292998D01*
X90834Y-291884D01*
X96102Y-286615D01*
X98170Y-287472D01*
X101901Y-287963D01*
X105631Y-287472D01*
X109107Y-286032D01*
X112092Y-283741D01*
X114383Y-280756D01*
X115823Y-277280D01*
X116314Y-273550D01*
X115823Y-269819D01*
X114383Y-266343D01*
X112092Y-263358D01*
X109107Y-261067D01*
X105631Y-259627D01*
X101901Y-259136D01*
X98170Y-259627D01*
X94694Y-261067D01*
X91709Y-263358D01*
X89418Y-266343D01*
X87978Y-269819D01*
X87487Y-273550D01*
X87978Y-277280D01*
X88835Y-279348D01*
X85071Y-283111D01*
X53040D01*
Y-277210D01*
X44227D01*
X26040Y-259022D01*
Y-245210D01*
X24153D01*
Y-227430D01*
X27570D01*
Y-217350D01*
X20526D01*
X20030Y-217251D01*
X19015D01*
X18518Y-217350D01*
X12490D01*
Y-227430D01*
X13876D01*
Y-245210D01*
X10639D01*
Y-199290D01*
X16730D01*
Y-188250D01*
Y-177210D01*
X10639D01*
Y-166290D01*
X26040D01*
Y-154477D01*
X35690Y-144827D01*
X36960Y-145353D01*
D02*
G37*
G36*
X485115Y-108609D02*
Y-132000D01*
X485411Y-133487D01*
X486253Y-134747D01*
X503253Y-151747D01*
X504513Y-152589D01*
X506000Y-152885D01*
X519903D01*
X558076Y-191057D01*
Y-237666D01*
X556873Y-238074D01*
X556592Y-237708D01*
X553607Y-235417D01*
X550131Y-233978D01*
X547671Y-233654D01*
Y-247900D01*
X545131D01*
Y-233654D01*
X542670Y-233978D01*
X540598Y-234836D01*
X539626Y-233864D01*
X540059Y-232819D01*
X541282Y-227724D01*
X541693Y-222500D01*
X541282Y-217276D01*
X540059Y-212181D01*
X538054Y-207340D01*
X535316Y-202872D01*
X531913Y-198887D01*
X527928Y-195484D01*
X523461Y-192746D01*
X518619Y-190741D01*
X513524Y-189518D01*
X508301Y-189107D01*
X503077Y-189518D01*
X497982Y-190741D01*
X493140Y-192746D01*
X488673Y-195484D01*
X484688Y-198887D01*
X481285Y-202872D01*
X478547Y-207340D01*
X476542Y-212181D01*
X475389Y-216982D01*
X474119Y-216832D01*
Y-198206D01*
X477913Y-194413D01*
X478806Y-193076D01*
X479119Y-191500D01*
Y-104409D01*
X480186Y-103862D01*
X480347Y-103841D01*
X485115Y-108609D01*
D02*
G37*
G36*
X389999Y-117789D02*
X380588Y-127201D01*
X379695Y-128537D01*
X379381Y-130113D01*
Y-240896D01*
X371398Y-248880D01*
X370259Y-248318D01*
X370314Y-247900D01*
X369823Y-244169D01*
X368383Y-240693D01*
X366092Y-237708D01*
X363107Y-235417D01*
X359631Y-233978D01*
X357170Y-233654D01*
Y-247900D01*
X354631D01*
Y-233654D01*
X352170Y-233978D01*
X350098Y-234836D01*
X349126Y-233864D01*
X349559Y-232819D01*
X350782Y-227724D01*
X351194Y-222500D01*
X350782Y-217276D01*
X349559Y-212181D01*
X347554Y-207340D01*
X344816Y-202872D01*
X341413Y-198887D01*
X337428Y-195484D01*
X332961Y-192746D01*
X328120Y-190741D01*
X328383Y-189498D01*
X341641D01*
X343607Y-189107D01*
X345274Y-187993D01*
X346388Y-186326D01*
X346609Y-185217D01*
X372913Y-158913D01*
X373806Y-157576D01*
X374119Y-156000D01*
Y-123858D01*
X381362Y-116616D01*
X389513D01*
X389999Y-117789D01*
D02*
G37*
%LPC*%
G36*
X115540Y-3710D02*
X105770D01*
Y-10480D01*
X115540D01*
Y-3710D01*
D02*
G37*
G36*
Y-13020D02*
X105770D01*
Y-19790D01*
X115540D01*
Y-13020D01*
D02*
G37*
G36*
X93890Y-1360D02*
X63810D01*
Y-26440D01*
X93890D01*
Y-19790D01*
X103230D01*
Y-11750D01*
Y-3710D01*
X93890D01*
Y-1360D01*
D02*
G37*
G36*
X39090D02*
X9010D01*
Y-26440D01*
X39090D01*
Y-1360D01*
D02*
G37*
G36*
X133540Y-21460D02*
X118460D01*
Y-34540D01*
X133540D01*
Y-21460D01*
D02*
G37*
G36*
X132270Y-36787D02*
Y-41480D01*
X136963D01*
X136742Y-40371D01*
X135395Y-38355D01*
X133378Y-37008D01*
X132270Y-36787D01*
D02*
G37*
G36*
X129730D02*
X128621Y-37008D01*
X126605Y-38355D01*
X125258Y-40371D01*
X125037Y-41480D01*
X129730D01*
Y-36787D01*
D02*
G37*
G36*
X136963Y-44020D02*
X132270D01*
Y-48713D01*
X133378Y-48492D01*
X135395Y-47145D01*
X136742Y-45128D01*
X136963Y-44020D01*
D02*
G37*
G36*
X129730D02*
X125037D01*
X125258Y-45128D01*
X126605Y-47145D01*
X128621Y-48492D01*
X129730Y-48713D01*
Y-44020D01*
D02*
G37*
G36*
X157790Y-50710D02*
X141710D01*
Y-72790D01*
X157790D01*
Y-68033D01*
X158910Y-67434D01*
X159372Y-67742D01*
X161750Y-68215D01*
X164128Y-67742D01*
X166145Y-66395D01*
X167492Y-64378D01*
X167965Y-62000D01*
X167492Y-59622D01*
X166145Y-57605D01*
X164128Y-56258D01*
X161750Y-55785D01*
X159372Y-56258D01*
X158910Y-56566D01*
X157790Y-55967D01*
Y-50710D01*
D02*
G37*
G36*
X56230Y-59037D02*
X55121Y-59258D01*
X53105Y-60605D01*
X51757Y-62621D01*
X51537Y-63730D01*
X56230D01*
Y-59037D01*
D02*
G37*
G36*
Y-66270D02*
X51537D01*
X51757Y-67378D01*
X53105Y-69395D01*
X55121Y-70742D01*
X56230Y-70963D01*
Y-66270D01*
D02*
G37*
G36*
X93890Y-75770D02*
X80120D01*
Y-79540D01*
X93890D01*
Y-75770D01*
D02*
G37*
G36*
X77580D02*
X63810D01*
Y-79540D01*
X77580D01*
Y-75770D01*
D02*
G37*
G36*
X462540Y-46270D02*
X454520D01*
Y-57040D01*
X456779D01*
X457160Y-58310D01*
X455949Y-60122D01*
X455728Y-61230D01*
X467654D01*
X467434Y-60122D01*
X466086Y-58105D01*
X464070Y-56758D01*
X462540Y-56453D01*
Y-46270D01*
D02*
G37*
G36*
X467654Y-63770D02*
X462961D01*
Y-68463D01*
X464070Y-68242D01*
X466086Y-66895D01*
X467434Y-64879D01*
X467654Y-63770D01*
D02*
G37*
G36*
X460421D02*
X455728D01*
X455949Y-64879D01*
X457296Y-66895D01*
X459313Y-68242D01*
X460421Y-68463D01*
Y-63770D01*
D02*
G37*
G36*
X569540Y-1460D02*
X561520D01*
Y-10480D01*
X569540D01*
Y-1460D01*
D02*
G37*
G36*
X558980D02*
X550960D01*
Y-10480D01*
X558980D01*
Y-1460D01*
D02*
G37*
G36*
X569540Y-13020D02*
X561520D01*
Y-22040D01*
X569540D01*
Y-13020D01*
D02*
G37*
G36*
X558980D02*
X550960D01*
Y-22040D01*
X558980D01*
Y-13020D01*
D02*
G37*
G36*
X532191Y-90034D02*
X529813Y-90508D01*
X527796Y-91855D01*
X526449Y-93871D01*
X525976Y-96250D01*
X526449Y-98628D01*
X527796Y-100645D01*
X529813Y-101992D01*
X532191Y-102465D01*
X532516Y-102401D01*
X535378Y-105262D01*
X536715Y-106155D01*
X538291Y-106469D01*
X553460D01*
Y-116560D01*
X546460D01*
Y-123680D01*
X558000D01*
X569540D01*
Y-119140D01*
X569540D01*
Y-109140D01*
Y-98140D01*
Y-92620D01*
X561500D01*
X553460D01*
Y-98231D01*
X539997D01*
X538342Y-96575D01*
X538406Y-96250D01*
X537933Y-93871D01*
X536586Y-91855D01*
X534570Y-90508D01*
X532191Y-90034D01*
D02*
G37*
G36*
X569540Y-126220D02*
X559270D01*
Y-133340D01*
X569540D01*
Y-126220D01*
D02*
G37*
G36*
X556730D02*
X546460D01*
Y-133340D01*
X556730D01*
Y-126220D01*
D02*
G37*
G36*
X222750Y-322534D02*
X220372Y-323008D01*
X218355Y-324355D01*
X217008Y-326371D01*
X216796Y-327437D01*
X209773Y-334460D01*
X200960D01*
Y-356540D01*
X217040D01*
Y-341727D01*
X224063Y-334704D01*
X225129Y-334492D01*
X227145Y-333145D01*
X228493Y-331129D01*
X228966Y-328750D01*
X228493Y-326371D01*
X227145Y-324355D01*
X225129Y-323008D01*
X222750Y-322534D01*
D02*
G37*
G36*
X115871Y-352369D02*
Y-361180D01*
X124681D01*
X124499Y-359797D01*
X123475Y-357326D01*
X121847Y-355203D01*
X119724Y-353575D01*
X117253Y-352551D01*
X115871Y-352369D01*
D02*
G37*
G36*
X113330D02*
X111948Y-352551D01*
X109477Y-353575D01*
X107354Y-355203D01*
X105726Y-357326D01*
X104702Y-359797D01*
X104520Y-361180D01*
X113330D01*
Y-352369D01*
D02*
G37*
G36*
X306260Y-352419D02*
Y-361230D01*
X315070D01*
X314888Y-359848D01*
X313864Y-357376D01*
X312236Y-355254D01*
X310114Y-353625D01*
X307642Y-352601D01*
X306260Y-352419D01*
D02*
G37*
G36*
X303720D02*
X302337Y-352601D01*
X299866Y-353625D01*
X297744Y-355254D01*
X296115Y-357376D01*
X295091Y-359848D01*
X294909Y-361230D01*
X303720D01*
Y-352419D01*
D02*
G37*
G36*
X406290Y-367210D02*
X399520D01*
Y-376980D01*
X406290D01*
Y-367210D01*
D02*
G37*
G36*
X396980D02*
X390210D01*
Y-376980D01*
X396980D01*
Y-367210D01*
D02*
G37*
G36*
X25540Y-367460D02*
X18770D01*
Y-377230D01*
X25540D01*
Y-367460D01*
D02*
G37*
G36*
X215790Y-367710D02*
X209020D01*
Y-377480D01*
X215790D01*
Y-367710D01*
D02*
G37*
G36*
X206480D02*
X199710D01*
Y-377480D01*
X206480D01*
Y-367710D01*
D02*
G37*
G36*
X406290Y-379520D02*
X399520D01*
Y-389290D01*
X406290D01*
Y-379520D01*
D02*
G37*
G36*
X396980D02*
X390210D01*
Y-389290D01*
X396980D01*
Y-379520D01*
D02*
G37*
G36*
X25540Y-379770D02*
X18770D01*
Y-389540D01*
X25540D01*
Y-379770D01*
D02*
G37*
G36*
X215790Y-380020D02*
X209020D01*
Y-389790D01*
X215790D01*
Y-380020D01*
D02*
G37*
G36*
X206480D02*
X199710D01*
Y-389790D01*
X206480D01*
Y-380020D01*
D02*
G37*
G36*
X166670Y-424403D02*
Y-437380D01*
X179647D01*
X179323Y-434919D01*
X177883Y-431443D01*
X175592Y-428458D01*
X172607Y-426167D01*
X169131Y-424727D01*
X166670Y-424403D01*
D02*
G37*
G36*
X547560Y-424454D02*
Y-437430D01*
X560536D01*
X560213Y-434969D01*
X558773Y-431493D01*
X556482Y-428508D01*
X553497Y-426218D01*
X550021Y-424778D01*
X547560Y-424454D01*
D02*
G37*
G36*
X357060D02*
Y-437430D01*
X370036D01*
X369712Y-434969D01*
X368272Y-431493D01*
X365981Y-428508D01*
X362996Y-426218D01*
X359520Y-424778D01*
X357060Y-424454D01*
D02*
G37*
G36*
X179647Y-439920D02*
X166670D01*
Y-452896D01*
X169131Y-452572D01*
X172607Y-451132D01*
X175592Y-448841D01*
X177883Y-445856D01*
X179323Y-442380D01*
X179647Y-439920D01*
D02*
G37*
G36*
X560536Y-439970D02*
X547560D01*
Y-452946D01*
X550021Y-452622D01*
X553497Y-451182D01*
X556482Y-448892D01*
X558773Y-445907D01*
X560213Y-442430D01*
X560536Y-439970D01*
D02*
G37*
G36*
X370036D02*
X357060D01*
Y-452946D01*
X359520Y-452622D01*
X362996Y-451182D01*
X365981Y-448892D01*
X368272Y-445907D01*
X369712Y-442430D01*
X370036Y-439970D01*
D02*
G37*
G36*
X400530Y-408001D02*
X399890D01*
X399393Y-408100D01*
X392990D01*
Y-418180D01*
X394751D01*
Y-436210D01*
X391210D01*
Y-458290D01*
X401523D01*
X418960Y-475728D01*
Y-490540D01*
X435040D01*
Y-484639D01*
X467390D01*
X469357Y-484248D01*
X471024Y-483134D01*
X476992Y-477166D01*
X479060Y-478022D01*
X482790Y-478513D01*
X486521Y-478022D01*
X489997Y-476582D01*
X492982Y-474292D01*
X495273Y-471307D01*
X496712Y-467830D01*
X497204Y-464100D01*
X496712Y-460369D01*
X495273Y-456893D01*
X492982Y-453908D01*
X489997Y-451618D01*
X486521Y-450178D01*
X482790Y-449687D01*
X479060Y-450178D01*
X475584Y-451618D01*
X472598Y-453908D01*
X470308Y-456893D01*
X468868Y-460369D01*
X468377Y-464100D01*
X468868Y-467830D01*
X469725Y-469898D01*
X465262Y-474361D01*
X435040D01*
Y-468460D01*
X426227D01*
X407384Y-449616D01*
X407290Y-449554D01*
Y-436210D01*
X405028D01*
Y-418180D01*
X408070D01*
Y-408100D01*
X401026D01*
X400530Y-408001D01*
D02*
G37*
G36*
X209530Y-407501D02*
X209015D01*
X208519Y-407600D01*
X201990D01*
Y-417680D01*
X203876D01*
Y-435710D01*
X200460D01*
Y-457790D01*
X210023D01*
X227960Y-475728D01*
Y-490540D01*
X244040D01*
Y-484639D01*
X276890D01*
X278857Y-484248D01*
X278857Y-484248D01*
X280524Y-483134D01*
X286492Y-477166D01*
X288559Y-478022D01*
X292290Y-478513D01*
X296020Y-478022D01*
X299496Y-476582D01*
X302481Y-474292D01*
X304772Y-471307D01*
X306212Y-467830D01*
X306703Y-464100D01*
X306212Y-460369D01*
X304772Y-456893D01*
X302481Y-453908D01*
X299496Y-451618D01*
X296020Y-450178D01*
X292290Y-449687D01*
X288559Y-450178D01*
X285083Y-451618D01*
X282098Y-453908D01*
X279807Y-456893D01*
X278368Y-460369D01*
X277876Y-464100D01*
X278368Y-467830D01*
X279224Y-469898D01*
X274762Y-474361D01*
X244040D01*
Y-468460D01*
X235227D01*
X216540Y-449772D01*
Y-435710D01*
X214154D01*
Y-417680D01*
X217070D01*
Y-407600D01*
X210026D01*
X209530Y-407501D01*
D02*
G37*
G36*
X115540Y-95210D02*
X108770D01*
Y-104980D01*
X115540D01*
Y-95210D01*
D02*
G37*
G36*
X106230D02*
X99460D01*
Y-104980D01*
X106230D01*
Y-95210D01*
D02*
G37*
G36*
X115540Y-107520D02*
X107500D01*
X99460D01*
Y-116194D01*
X99210Y-117360D01*
X99210Y-118456D01*
Y-127130D01*
X107250D01*
X115290D01*
Y-118456D01*
X115540Y-117290D01*
X115540Y-116194D01*
Y-107520D01*
D02*
G37*
G36*
X115290Y-129670D02*
X108520D01*
Y-139440D01*
X115290D01*
Y-129670D01*
D02*
G37*
G36*
X105980D02*
X99210D01*
Y-139440D01*
X105980D01*
Y-129670D01*
D02*
G37*
G36*
X306371Y-161619D02*
Y-170430D01*
X315181D01*
X314999Y-169047D01*
X313975Y-166576D01*
X312347Y-164454D01*
X310224Y-162825D01*
X307753Y-161801D01*
X306371Y-161619D01*
D02*
G37*
G36*
X303831D02*
X302448Y-161801D01*
X299977Y-162825D01*
X297854Y-164454D01*
X296226Y-166576D01*
X295202Y-169047D01*
X295020Y-170430D01*
X303831D01*
Y-161619D01*
D02*
G37*
G36*
X451980Y-92660D02*
X443960D01*
Y-103430D01*
X451980D01*
Y-92660D01*
D02*
G37*
G36*
X428876Y-96804D02*
X425828D01*
Y-105440D01*
X428876D01*
Y-96804D01*
D02*
G37*
G36*
Y-107980D02*
X425828D01*
Y-116616D01*
X428876D01*
Y-107980D01*
D02*
G37*
G36*
X462540Y-105970D02*
X454520D01*
Y-116740D01*
X462540D01*
Y-105970D01*
D02*
G37*
G36*
X451980D02*
X443960D01*
Y-116740D01*
X451980D01*
Y-105970D01*
D02*
G37*
G36*
X400441Y-130285D02*
X398063Y-130758D01*
X396046Y-132105D01*
X394699Y-134122D01*
X394226Y-136500D01*
X394699Y-138879D01*
X396046Y-140895D01*
X396411Y-141138D01*
Y-143960D01*
X391960D01*
Y-166040D01*
X408040D01*
Y-143960D01*
X404649D01*
Y-141020D01*
X404836Y-140895D01*
X406184Y-138879D01*
X406657Y-136500D01*
X406184Y-134122D01*
X404836Y-132105D01*
X402820Y-130758D01*
X400441Y-130285D01*
D02*
G37*
G36*
X407790Y-175960D02*
X401020D01*
Y-185730D01*
X407790D01*
Y-175960D01*
D02*
G37*
G36*
X398480D02*
X391710D01*
Y-185730D01*
X398480D01*
Y-175960D01*
D02*
G37*
G36*
X407790Y-188270D02*
X401020D01*
Y-198040D01*
X407790D01*
Y-188270D01*
D02*
G37*
G36*
X398480D02*
X391710D01*
Y-198040D01*
X398480D01*
Y-188270D01*
D02*
G37*
G36*
X401461Y-202537D02*
Y-207230D01*
X406154D01*
X405934Y-206122D01*
X404586Y-204105D01*
X402570Y-202758D01*
X401461Y-202537D01*
D02*
G37*
G36*
X398921D02*
X397813Y-202758D01*
X395796Y-204105D01*
X394449Y-206122D01*
X394229Y-207230D01*
X398921D01*
Y-202537D01*
D02*
G37*
G36*
X406154Y-209770D02*
X401461D01*
Y-214463D01*
X402570Y-214242D01*
X404586Y-212895D01*
X405934Y-210879D01*
X406154Y-209770D01*
D02*
G37*
G36*
X398921D02*
X394229D01*
X394449Y-210879D01*
X395796Y-212895D01*
X397813Y-214242D01*
X398921Y-214463D01*
Y-209770D01*
D02*
G37*
G36*
X115871Y-161869D02*
Y-170680D01*
X124681D01*
X124499Y-169297D01*
X123475Y-166826D01*
X121847Y-164703D01*
X119724Y-163075D01*
X117253Y-162051D01*
X115871Y-161869D01*
D02*
G37*
G36*
X113330D02*
X111948Y-162051D01*
X109477Y-163075D01*
X107354Y-164703D01*
X105726Y-166826D01*
X104702Y-169297D01*
X104520Y-170680D01*
X113330D01*
Y-161869D01*
D02*
G37*
G36*
X26040Y-177210D02*
X19270D01*
Y-186980D01*
X26040D01*
Y-177210D01*
D02*
G37*
G36*
X216540Y-187770D02*
X209770D01*
Y-197540D01*
X216540D01*
Y-187770D01*
D02*
G37*
G36*
X207230D02*
X200460D01*
Y-197540D01*
X207230D01*
Y-187770D01*
D02*
G37*
G36*
X26040Y-189520D02*
X19270D01*
Y-199290D01*
X26040D01*
Y-189520D01*
D02*
G37*
G36*
X166670Y-233904D02*
Y-246880D01*
X179647D01*
X179323Y-244419D01*
X177883Y-240943D01*
X175592Y-237958D01*
X172607Y-235667D01*
X169131Y-234227D01*
X166670Y-233904D01*
D02*
G37*
G36*
X179647Y-249420D02*
X166670D01*
Y-262396D01*
X169131Y-262072D01*
X172607Y-260632D01*
X175592Y-258341D01*
X177883Y-255356D01*
X179323Y-251880D01*
X179647Y-249420D01*
D02*
G37*
G36*
X496870Y-161619D02*
Y-170430D01*
X505681D01*
X505499Y-169047D01*
X504475Y-166576D01*
X502847Y-164454D01*
X500724Y-162825D01*
X498253Y-161801D01*
X496870Y-161619D01*
D02*
G37*
G36*
X494330D02*
X492948Y-161801D01*
X490477Y-162825D01*
X488354Y-164454D01*
X486726Y-166576D01*
X485702Y-169047D01*
X485520Y-170430D01*
X494330D01*
Y-161619D01*
D02*
G37*
G36*
X505681Y-172970D02*
X496870D01*
Y-181780D01*
X498253Y-181598D01*
X500724Y-180574D01*
X502847Y-178946D01*
X504475Y-176824D01*
X505499Y-174352D01*
X505681Y-172970D01*
D02*
G37*
G36*
X494330D02*
X485520D01*
X485702Y-174352D01*
X486726Y-176824D01*
X488354Y-178946D01*
X490477Y-180574D01*
X492948Y-181598D01*
X494330Y-181780D01*
Y-172970D01*
D02*
G37*
G36*
X521001Y-161452D02*
X518348Y-161801D01*
X515877Y-162825D01*
X513754Y-164454D01*
X512126Y-166576D01*
X511102Y-169047D01*
X510753Y-171700D01*
X511102Y-174352D01*
X512126Y-176824D01*
X513754Y-178946D01*
X515877Y-180574D01*
X518348Y-181598D01*
X521001Y-181947D01*
X523653Y-181598D01*
X526124Y-180574D01*
X528247Y-178946D01*
X529875Y-176824D01*
X530899Y-174352D01*
X531248Y-171700D01*
X530899Y-169047D01*
X529875Y-166576D01*
X528247Y-164454D01*
X526124Y-162825D01*
X523653Y-161801D01*
X521001Y-161452D01*
D02*
G37*
%LPD*%
D12*
X205713Y-54500D02*
X224000D01*
X198713Y-47500D02*
X205713Y-54500D01*
X171500Y-47500D02*
X198713D01*
X234250Y-49000D02*
X235363D01*
X352750Y-5500D02*
X363000D01*
X235363Y-49000D02*
X236213Y-48150D01*
X246617D01*
X247657Y-47110D01*
X224000Y-54500D02*
Y-47713D01*
X363000Y-5500D02*
X375242Y-17742D01*
X375000Y-19000D02*
X385442Y-29442D01*
X220000Y-61500D02*
Y-58500D01*
X375242Y-17742D02*
X376258D01*
X348683Y-44000D02*
X365000D01*
X345889Y-36000D02*
X357250D01*
X334779Y-47110D02*
X345889Y-36000D01*
X338738Y-53944D02*
X348683Y-44000D01*
X375000Y-19000D02*
X376258Y-17742D01*
X236250Y-63112D02*
X236251Y-63111D01*
X162500Y-38500D02*
Y-34500D01*
Y-38500D02*
X171500Y-47500D01*
X112728Y-78250D02*
X142749D01*
X149249Y-84750D01*
X199250Y-81750D02*
X212008D01*
X195750Y-78250D02*
X199250Y-81750D01*
X224000Y-87750D02*
X224381Y-87369D01*
X247276D01*
X247657Y-86988D01*
X149249Y-84750D02*
X168750D01*
X214643Y-79114D02*
X247657D01*
X212008Y-81750D02*
X214643Y-79114D01*
X150000Y-62000D02*
X161750D01*
X149750Y-61750D02*
X150000Y-62000D01*
X134500Y-107700D02*
Y-106250D01*
Y-107700D02*
X138500Y-111700D01*
X152350D01*
X160350Y-119700D01*
Y-122200D02*
Y-119700D01*
X134250Y-131400D02*
Y-128400D01*
Y-131400D02*
X141089Y-138240D01*
X171523D01*
X177063Y-132700D01*
X193350D01*
X201350Y-124700D01*
Y-122200D01*
X168350Y-111700D02*
X170850D01*
X160350Y-119700D02*
X168350Y-111700D01*
X177550Y-105000D02*
X217313D01*
X170850Y-111700D02*
X177550Y-105000D01*
X217313D02*
X228512Y-116198D01*
X260865D01*
X195750Y-87750D02*
X199750Y-91750D01*
X195750Y-87750D02*
Y-84750D01*
X408546Y-23282D02*
X451734D01*
X392324Y-39504D02*
X408546Y-23282D01*
X392324Y-48012D02*
Y-39504D01*
X337000Y-28000D02*
X344750D01*
X474000Y-82491D02*
Y-43787D01*
X376258Y-17742D02*
X454029D01*
X456326Y-20040D01*
X491223D01*
X540533Y-69350D01*
X561500D01*
X461673Y-31460D02*
X474000Y-43787D01*
X459911Y-31460D02*
X461673D01*
X451734Y-23282D02*
X459911Y-31460D01*
X542541Y-58350D02*
X561500D01*
X530691Y-46500D02*
X542541Y-58350D01*
X551500Y-47309D02*
X561459D01*
X561500Y-47350D01*
X532191Y-28000D02*
X551500Y-47309D01*
X529941Y-69500D02*
X540791Y-80350D01*
X561500D01*
X532191Y-96250D02*
X538291Y-102350D01*
X561500D01*
X329953Y-70986D02*
X347682D01*
X353889Y-55000D02*
X366000D01*
X345777Y-63112D02*
X353889Y-55000D01*
X329953Y-63112D02*
X345777D01*
X356072Y-62596D02*
X392597D01*
X347682Y-70986D02*
X356072Y-62596D01*
X392597D02*
X398118Y-57075D01*
X331098Y-33902D02*
X337000Y-28000D01*
X316745Y-33902D02*
X331098D01*
X329953Y-47110D02*
X334779D01*
X330993Y-53944D02*
X338738D01*
X329953Y-54984D02*
X330993Y-53944D01*
X385442Y-48290D02*
Y-29442D01*
X190000Y-58500D02*
X193000Y-61500D01*
X259000Y-102990D02*
X279278D01*
X247657D02*
X259000D01*
X259063Y-102927D01*
Y-66773D01*
X256442Y-64152D02*
X259063Y-66773D01*
X248697Y-64152D02*
X256442D01*
X247657Y-63112D02*
X248697Y-64152D01*
X267155Y-73213D02*
X267941Y-74000D01*
X267155Y-73213D02*
Y-62464D01*
X260714Y-56024D02*
X267155Y-62464D01*
X248697Y-56024D02*
X260714D01*
X279278Y-102990D02*
X283701Y-107413D01*
Y-115158D02*
Y-107413D01*
Y-115158D02*
X284741Y-116198D01*
X475000Y-191500D02*
Y-104000D01*
X436000Y-65000D02*
X475000Y-104000D01*
X436000Y-65000D02*
Y-40000D01*
X474000Y-82491D02*
X592500Y-200991D01*
X392046Y-48290D02*
X392324Y-48012D01*
X429902Y-33902D02*
X436000Y-40000D01*
X422598Y-33902D02*
X429902D01*
X418232Y-38268D02*
X422598Y-33902D01*
X418232Y-48012D02*
Y-38268D01*
X398118Y-57075D02*
Y-48568D01*
X398396Y-48290D01*
X357503Y-69000D02*
X399147D01*
X361789Y-74540D02*
X406562D01*
X347388Y-79114D02*
X357503Y-69000D01*
X349341Y-86988D02*
X361789Y-74540D01*
X406562D02*
X424280Y-56821D01*
X399147Y-69000D02*
X411326Y-56821D01*
X470000Y-235000D02*
X511757Y-276757D01*
X470000Y-235000D02*
Y-196500D01*
X475000Y-191500D01*
X480500Y-310500D02*
X511757Y-279243D01*
Y-276757D01*
X411326Y-56821D02*
Y-48568D01*
X417954Y-48290D02*
X418232Y-48012D01*
X424280Y-56821D02*
Y-48568D01*
X424558Y-48290D01*
X329953Y-86988D02*
X349341D01*
X329953Y-79114D02*
X347388D01*
X411326Y-48568D02*
X411604Y-48290D01*
X372156Y-88231D02*
X394775D01*
X357397Y-102990D02*
X372156Y-88231D01*
X329953Y-102990D02*
X357397D01*
X394775Y-88231D02*
X404722Y-98178D01*
Y-106432D02*
Y-98178D01*
Y-106432D02*
X405000Y-106710D01*
X383500Y-130113D02*
X397864Y-115749D01*
X383500Y-244044D02*
Y-130113D01*
X397864Y-107242D02*
X398396Y-106710D01*
X397864Y-115749D02*
Y-107242D01*
X370000Y-122152D02*
X385442Y-106710D01*
X370000Y-156000D02*
Y-122152D01*
X341641Y-184360D02*
X370000Y-156000D01*
X309911Y-125365D02*
X320441Y-135895D01*
X309911Y-125365D02*
Y-117238D01*
X308871Y-116198D02*
X309911Y-117238D01*
X400530Y-154470D02*
Y-136750D01*
X400000Y-155000D02*
X400530Y-154470D01*
X301713Y-134213D02*
X302500Y-135000D01*
X301713Y-134213D02*
Y-117169D01*
X300743Y-116198D02*
X301713Y-117169D01*
X277941Y-69000D02*
Y-64000D01*
X292941Y-69000D02*
Y-68258D01*
X269779Y-45095D02*
X292941Y-68258D01*
X260865Y-46924D02*
X277941Y-64000D01*
X269779Y-45095D02*
Y-34942D01*
X268739Y-33902D02*
X269779Y-34942D01*
X260865Y-46924D02*
Y-33902D01*
X247657Y-54984D02*
X248697Y-56024D01*
X149750Y-64750D02*
Y-61750D01*
X592500Y-324000D02*
Y-200991D01*
D16*
X212222Y-3610D02*
X222422Y-13810D01*
X286827Y-12566D02*
X299473Y-25212D01*
X210118Y-8690D02*
X220318Y-18890D01*
X283779Y-17646D02*
X291599Y-25466D01*
X283471Y-32632D02*
X284741Y-33902D01*
X283471Y-32632D02*
Y-25212D01*
X280985Y-22726D02*
X283471Y-25212D01*
X256747Y-22726D02*
X280985D01*
X243663Y-35810D02*
X256747Y-22726D01*
X208810Y-35810D02*
X243663D01*
X207500Y-34500D02*
X208810Y-35810D01*
X254643Y-17646D02*
X283779D01*
X220318Y-18890D02*
X253399D01*
X252538Y-12566D02*
X286827D01*
X222422Y-13810D02*
X251294D01*
X252538Y-12566D01*
X253399Y-18890D02*
X254643Y-17646D01*
X192500Y-34500D02*
Y-15248D01*
X199058Y-8690D01*
X144190Y-13558D02*
X154138Y-3610D01*
X199058Y-8690D02*
X210118D01*
X291599Y-32632D02*
Y-25466D01*
Y-32632D02*
X292869Y-33902D01*
X154138Y-3610D02*
X212222D01*
X299473Y-32632D02*
Y-25212D01*
Y-32632D02*
X300743Y-33902D01*
X144190Y-20442D02*
Y-13558D01*
Y-20442D02*
X146938Y-23190D01*
Y-33938D02*
Y-23190D01*
Y-33938D02*
X147500Y-34500D01*
X489000Y-132000D02*
Y-107000D01*
X441310Y-59310D02*
X489000Y-107000D01*
X441310Y-59310D02*
Y-37801D01*
X432102Y-28592D02*
X441310Y-37801D01*
X400250Y-320000D02*
X496305D01*
X561960Y-254345D01*
Y-189448D01*
X521512Y-149000D02*
X561960Y-189448D01*
X506000Y-149000D02*
X521512D01*
X489000Y-132000D02*
X506000Y-149000D01*
X416770Y-28592D02*
X432102D01*
X405508Y-39854D02*
X416770Y-28592D01*
X405508Y-47782D02*
Y-39854D01*
X405000Y-48290D02*
X405508Y-47782D01*
X452500Y-127158D02*
X465000Y-139658D01*
Y-183750D02*
Y-139658D01*
X462040Y-186710D02*
X465000Y-183750D01*
X366419Y-82500D02*
X401927D01*
X417446Y-98020D01*
Y-106202D02*
Y-98020D01*
Y-106202D02*
X417954Y-106710D01*
X353802Y-95116D02*
X366419Y-82500D01*
X329953Y-95116D02*
X353802D01*
X356302Y-116198D02*
X376966Y-95534D01*
X388798D01*
X391538Y-98274D01*
Y-106202D02*
Y-98274D01*
Y-106202D02*
X392046Y-106710D01*
X316745Y-116198D02*
X356302D01*
X423870Y-127158D02*
X452500D01*
X412112Y-115400D02*
X423870Y-127158D01*
X412112Y-115400D02*
Y-107218D01*
X411604Y-106710D02*
X412112Y-107218D01*
X-0Y0D02*
X600000D01*
Y-503500D02*
Y0D01*
X-0Y-503500D02*
X600000D01*
X-0D02*
Y0D01*
D18*
X126000Y-6000D02*
D03*
Y-28000D02*
D03*
X229000Y-6000D02*
D03*
Y-28000D02*
D03*
D19*
X147500Y-34500D02*
D03*
X162500D02*
D03*
X192500D02*
D03*
X207500D02*
D03*
D20*
X78850Y-42500D02*
D03*
Y-50500D02*
D03*
Y-58500D02*
D03*
Y-66500D02*
D03*
Y-74500D02*
D03*
D21*
Y-13900D02*
D03*
Y-103100D02*
D03*
X24050Y-13900D02*
D03*
Y-103100D02*
D03*
D22*
X160350Y-122200D02*
D03*
X201350D02*
D03*
D23*
X560250Y-11750D02*
D03*
D24*
X558000Y-124950D02*
D03*
D25*
X453250Y-45000D02*
D03*
Y-104700D02*
D03*
D26*
X463000Y-10000D02*
D03*
X500000D02*
D03*
D27*
X561500Y-36350D02*
D03*
Y-58350D02*
D03*
Y-69350D02*
D03*
Y-80350D02*
D03*
Y-91350D02*
D03*
Y-102350D02*
D03*
D28*
Y-47350D02*
D03*
D29*
Y-112850D02*
D03*
D30*
X247657Y-102990D02*
D03*
Y-95116D02*
D03*
Y-86988D02*
D03*
Y-79114D02*
D03*
Y-70986D02*
D03*
Y-63112D02*
D03*
Y-54984D02*
D03*
Y-47110D02*
D03*
X329953D02*
D03*
Y-54984D02*
D03*
Y-63112D02*
D03*
Y-70986D02*
D03*
Y-79114D02*
D03*
Y-86988D02*
D03*
Y-95116D02*
D03*
Y-102990D02*
D03*
D31*
X260865Y-33902D02*
D03*
X268739D02*
D03*
X276867D02*
D03*
X284741D02*
D03*
X292869D02*
D03*
X300743D02*
D03*
X308871D02*
D03*
X316745D02*
D03*
Y-116198D02*
D03*
X308871D02*
D03*
X300743D02*
D03*
X292869D02*
D03*
X284741D02*
D03*
X276867D02*
D03*
X268739D02*
D03*
X260865D02*
D03*
D32*
X107250Y-128400D02*
D03*
X134250D02*
D03*
X107500Y-106250D02*
D03*
X134500D02*
D03*
X193000Y-61500D02*
D03*
X220000D02*
D03*
X427000Y-346860D02*
D03*
X400000D02*
D03*
X425250Y-378250D02*
D03*
X398250D02*
D03*
X399250Y-447250D02*
D03*
X426250D02*
D03*
X400000Y-479500D02*
D03*
X427000D02*
D03*
X45000Y-188250D02*
D03*
X18000D02*
D03*
X235500Y-186500D02*
D03*
X208500D02*
D03*
X426750Y-187000D02*
D03*
X399750D02*
D03*
X44500Y-378500D02*
D03*
X17500D02*
D03*
X234750Y-378750D02*
D03*
X207750D02*
D03*
X18000Y-288250D02*
D03*
X45000D02*
D03*
X18000Y-256250D02*
D03*
X45000D02*
D03*
Y-155250D02*
D03*
X18000D02*
D03*
X209000Y-288000D02*
D03*
X236000D02*
D03*
X209000Y-256000D02*
D03*
X236000D02*
D03*
X235500Y-154250D02*
D03*
X208500D02*
D03*
X398000Y-288000D02*
D03*
X425000D02*
D03*
X399500Y-256000D02*
D03*
X426500D02*
D03*
X427000Y-155000D02*
D03*
X400000D02*
D03*
X18000Y-479750D02*
D03*
X45000D02*
D03*
X18000Y-448000D02*
D03*
X45000D02*
D03*
Y-345500D02*
D03*
X18000D02*
D03*
X209000Y-479500D02*
D03*
X236000D02*
D03*
X208500Y-446750D02*
D03*
X235500D02*
D03*
X236000Y-345500D02*
D03*
X209000D02*
D03*
X122750Y-61750D02*
D03*
X149750D02*
D03*
X168750Y-84750D02*
D03*
X195750D02*
D03*
D33*
X385442Y-106710D02*
D03*
X392046D02*
D03*
X398396D02*
D03*
X405000D02*
D03*
X411604D02*
D03*
X417954D02*
D03*
X424558D02*
D03*
Y-48290D02*
D03*
X417954D02*
D03*
X411604D02*
D03*
X405000D02*
D03*
X398396D02*
D03*
X392046D02*
D03*
X385442D02*
D03*
D34*
X424500Y-413000D02*
D03*
X400530Y-413140D02*
D03*
X44000Y-222250D02*
D03*
X20030Y-222390D02*
D03*
X234500Y-221000D02*
D03*
X210530Y-221140D02*
D03*
X424750Y-221500D02*
D03*
X400780Y-221640D02*
D03*
X43000Y-413250D02*
D03*
X19030Y-413390D02*
D03*
X233500Y-412500D02*
D03*
X209530Y-412640D02*
D03*
D35*
X104500Y-38750D02*
D03*
Y-11750D02*
D03*
D58*
X221500Y-58750D02*
X224500Y-61750D01*
X236250Y-63112D02*
X247657D01*
X228862D02*
X236250D01*
X153710Y-98460D02*
X225447D01*
X228790Y-95116D01*
X247657D01*
X61242Y-42500D02*
X78850D01*
X88850D01*
X92978Y-58500D02*
X112728Y-78250D01*
X92446Y-38904D02*
X110000D01*
X143310Y-88060D02*
X153710Y-98460D01*
X227500Y-61750D02*
X228862Y-63112D01*
X224500Y-61750D02*
X227500D01*
X102250Y-50500D02*
X107500Y-55750D01*
X119750D01*
X122750Y-58750D01*
Y-61750D02*
Y-58750D01*
X78850Y-50500D02*
X102250D01*
X78850Y-58500D02*
X92978D01*
X64190Y-88060D02*
X143310D01*
X54460Y-97790D02*
X64190Y-88060D01*
X201350Y-122200D02*
X207754Y-128604D01*
X265493D01*
X425375Y-446375D02*
Y-413000D01*
X424875D02*
Y-378625D01*
X427000Y-155000D02*
X457500D01*
X234125Y-412500D02*
Y-379375D01*
X234500Y-445750D02*
Y-412500D01*
X43750Y-413250D02*
Y-379250D01*
X44000Y-447000D02*
Y-413250D01*
X394000Y-310500D02*
X480500D01*
X409250Y-337610D02*
Y-329750D01*
X400000Y-346860D02*
X409250Y-337610D01*
X391750Y-312750D02*
X394000Y-310500D01*
X210000Y-312750D02*
X391750D01*
X398750Y-320000D02*
X400250D01*
X341240Y-377510D02*
X398750Y-320000D01*
X426750Y-221500D02*
Y-187000D01*
X425625Y-255125D02*
Y-221500D01*
X235000Y-221000D02*
Y-187000D01*
X235250Y-255250D02*
Y-221000D01*
X362855Y-264690D02*
X383500Y-244044D01*
X47134Y-226250D02*
X86424Y-186959D01*
X44500Y-222250D02*
Y-188750D01*
Y-226250D02*
Y-222250D01*
X399890Y-446610D02*
Y-413140D01*
X209015Y-446235D02*
Y-412640D01*
X18515Y-447485D02*
Y-413390D01*
X400140Y-255360D02*
Y-221640D01*
X209765Y-255235D02*
Y-221140D01*
X19015Y-255235D02*
Y-222390D01*
X222250Y-137500D02*
X222594D01*
X208500Y-151250D02*
X222250Y-137500D01*
X265493Y-128604D02*
X268699Y-125398D01*
Y-116238D01*
X268739Y-116198D01*
X88850Y-42500D02*
X92446Y-38904D01*
X36985Y-66756D02*
X61242Y-42500D01*
X5500Y-92022D02*
X30766Y-66756D01*
X36985D01*
X5500Y-125250D02*
Y-92022D01*
X54460Y-102318D02*
Y-97790D01*
X31528Y-125250D02*
X54460Y-102318D01*
X538990Y-377510D02*
X592500Y-324000D01*
X5500Y-272750D02*
Y-125250D01*
X31528D01*
X5500Y-272750D02*
X18000Y-285250D01*
X5500Y-303750D02*
X18000Y-291250D01*
X5500Y-464250D02*
Y-303750D01*
Y-464250D02*
X18000Y-476750D01*
X134250Y-128400D02*
X135000Y-129150D01*
X34750Y-138500D02*
Y-136500D01*
X18000Y-155250D02*
X34750Y-138500D01*
X208500Y-154250D02*
Y-151250D01*
X182500Y-340250D02*
X210000Y-312750D01*
X400000Y-155000D02*
Y-152000D01*
X270990Y-377510D02*
X341240D01*
X209000Y-342500D02*
X222750Y-328750D01*
X209000Y-345500D02*
Y-342500D01*
X35500Y-328000D02*
Y-327500D01*
X18000Y-345500D02*
X35500Y-328000D01*
X307535Y-264690D02*
X362855D01*
X299355Y-256510D02*
X307535Y-264690D01*
X236510Y-256510D02*
X299355D01*
X236000Y-256000D02*
X236510Y-256510D01*
X257852Y-184360D02*
X341641D01*
X245442Y-171950D02*
X257852Y-184360D01*
X167550Y-171950D02*
X245442D01*
X152540Y-186959D02*
X167550Y-171950D01*
X313051Y-154250D02*
X330500Y-171700D01*
X235500Y-154250D02*
X313051D01*
X462490Y-377510D02*
X538990D01*
X383500Y-302500D02*
X392000Y-294000D01*
X220500Y-302500D02*
X383500D01*
X209000Y-291000D02*
X220500Y-302500D01*
X425375Y-413000D02*
X427000D01*
X424875D02*
X425375D01*
X424500D02*
X424875D01*
X427000D02*
X462490Y-377510D01*
X505250Y-346860D02*
X520890Y-362500D01*
X427000Y-346860D02*
X505250D01*
X234500Y-412500D02*
X236000D01*
X234125D02*
X234500D01*
X236000D02*
X270990Y-377510D01*
X44000Y-413250D02*
X45500D01*
X43750D02*
X44000D01*
X182500Y-358000D02*
Y-340250D01*
X163500Y-377000D02*
X182500Y-358000D01*
X81750Y-377000D02*
X163500D01*
X123051Y-345500D02*
X140000Y-362450D01*
X45000Y-345500D02*
X123051D01*
X45500Y-413250D02*
X81750Y-377000D01*
X18000Y-288250D02*
Y-285250D01*
Y-291250D02*
Y-288250D01*
Y-479750D02*
Y-476750D01*
X426750Y-221500D02*
X427250D01*
X425625D02*
X426750D01*
X427250D02*
X462040Y-186710D01*
X424750Y-221500D02*
X425625D01*
X235000Y-221000D02*
X235250D01*
X234500D02*
X235000D01*
X86424Y-186959D02*
X152540D01*
X123301Y-155250D02*
X140000Y-171950D01*
X45000Y-155250D02*
X123301D01*
X44500Y-255750D02*
Y-226250D01*
X44000Y-222250D02*
X44500D01*
Y-226250D02*
X47134D01*
X313390Y-345500D02*
X330390Y-362500D01*
X236000Y-345500D02*
X313390D01*
X425625Y-255125D02*
X426500Y-256000D01*
X400140Y-221640D02*
X400780D01*
X399500Y-256000D02*
X400140Y-255360D01*
X468200Y-288000D02*
X482901Y-273300D01*
X425000Y-288000D02*
X468200D01*
X422001Y-285000D02*
X425000Y-288000D01*
X422001Y-285000D02*
Y-281500D01*
X399500Y-259000D02*
X422001Y-281500D01*
X399500Y-259000D02*
Y-256000D01*
X18000Y-259250D02*
Y-256250D01*
Y-259250D02*
X21000Y-262250D01*
X22000D01*
X45000Y-285250D01*
Y-288250D02*
Y-285250D01*
Y-288250D02*
X87200D01*
X101901Y-273550D01*
X18000Y-256250D02*
X19015Y-255235D01*
Y-222390D02*
X20030D01*
X44500Y-188750D02*
X45000Y-188250D01*
X44500Y-255750D02*
X45000Y-256250D01*
X235000Y-187000D02*
X235500Y-186500D01*
X235250Y-255250D02*
X236000Y-256000D01*
X209765Y-221140D02*
X210530D01*
X209000Y-256000D02*
X209765Y-255235D01*
X209000Y-259000D02*
Y-256000D01*
Y-259000D02*
X212000Y-262000D01*
X213000D01*
X236000Y-285000D01*
Y-288000D02*
Y-285000D01*
Y-288000D02*
X277700D01*
X292400Y-273300D01*
X392000Y-294000D02*
X395000D01*
X398000Y-291000D01*
Y-288000D01*
X209000Y-291000D02*
Y-288000D01*
X35750Y-309000D02*
X188000D01*
X203000Y-294000D01*
X206000D01*
X209000Y-291000D01*
X18000Y-291250D02*
X35750Y-309000D01*
X43750Y-379250D02*
X44500Y-378500D01*
X43000Y-413250D02*
X43750D01*
X44000Y-447000D02*
X45000Y-448000D01*
X18515Y-413390D02*
X19030D01*
X18000Y-448000D02*
X18515Y-447485D01*
X208500Y-446750D02*
X209015Y-446235D01*
Y-412640D02*
X209530D01*
X234125Y-379375D02*
X234750Y-378750D01*
X233500Y-412500D02*
X234125D01*
X234500Y-445750D02*
X235500Y-446750D01*
X424875Y-378625D02*
X425250Y-378250D01*
X425375Y-446375D02*
X426250Y-447250D01*
X399890Y-413140D02*
X400530D01*
X399250Y-447250D02*
X399890Y-446610D01*
X467390Y-479500D02*
X482790Y-464100D01*
X427000Y-479500D02*
X467390D01*
X276890D02*
X292290Y-464100D01*
X236000Y-479500D02*
X276890D01*
X86200Y-479750D02*
X101901Y-464050D01*
X45000Y-479750D02*
X86200D01*
X18000Y-451000D02*
Y-448000D01*
Y-451000D02*
X21000Y-454000D01*
X22250D01*
X45000Y-476750D01*
Y-479750D02*
Y-476750D01*
X208500Y-449750D02*
Y-446750D01*
Y-449750D02*
X211500Y-452750D01*
X212250D01*
X236000Y-476500D01*
Y-479500D02*
Y-476500D01*
X399250Y-450250D02*
Y-447250D01*
Y-450250D02*
X402250Y-453250D01*
X403750D01*
X427000Y-476500D01*
Y-479500D02*
Y-476500D01*
X223500Y-497000D02*
X382500D01*
X394000Y-485500D01*
X397000D01*
X400000Y-482500D01*
Y-479500D01*
X209000Y-482500D02*
X223500Y-497000D01*
X209000Y-482500D02*
Y-479500D01*
X32000Y-496750D02*
X191750D01*
X203000Y-485500D01*
X206000D01*
X209000Y-482500D01*
X18000Y-482750D02*
X32000Y-496750D01*
X18000Y-482750D02*
Y-479750D01*
D59*
X152500Y-17000D02*
D03*
X202500D02*
D03*
X53750Y-36500D02*
D03*
Y-80500D02*
D03*
D60*
X140000Y-171950D02*
D03*
X114600D02*
D03*
X305100Y-171700D02*
D03*
X330500D02*
D03*
X521001D02*
D03*
X495601D02*
D03*
X114600Y-362450D02*
D03*
X140000D02*
D03*
X520890Y-362500D02*
D03*
X495490D02*
D03*
X304990D02*
D03*
X330390D02*
D03*
D61*
X127301Y-222750D02*
D03*
X317801Y-222500D02*
D03*
X508301D02*
D03*
X127301Y-413250D02*
D03*
X508190Y-413300D02*
D03*
X317690D02*
D03*
D62*
X101901Y-273550D02*
D03*
X165401Y-248150D02*
D03*
X355900Y-247900D02*
D03*
X292400Y-273300D02*
D03*
X482901D02*
D03*
X546400Y-247900D02*
D03*
X165401Y-438650D02*
D03*
X101901Y-464050D02*
D03*
X482790Y-464100D02*
D03*
X546290Y-438700D02*
D03*
X355790D02*
D03*
X292290Y-464100D02*
D03*
D63*
X131000Y-42750D02*
D03*
X224191Y-47500D02*
D03*
X234250Y-49000D02*
D03*
X353191Y-5750D02*
D03*
X356296Y-36000D02*
D03*
X224000Y-87750D02*
D03*
X161750Y-62000D02*
D03*
X461691Y-62500D02*
D03*
X400191Y-208500D02*
D03*
X532191Y-96250D02*
D03*
X529941Y-69500D02*
D03*
X530691Y-46500D02*
D03*
X532191Y-28000D02*
D03*
X366000Y-55000D02*
D03*
X364941Y-43750D02*
D03*
X344441Y-28250D02*
D03*
X267941Y-74000D02*
D03*
X320441Y-135895D02*
D03*
X400441Y-136500D02*
D03*
X302500Y-135000D02*
D03*
X277941Y-69000D02*
D03*
X292941D02*
D03*
X456941Y-155250D02*
D03*
X222594Y-137500D02*
D03*
X57500Y-65000D02*
D03*
X34750Y-136500D02*
D03*
X409250Y-329750D02*
D03*
X35500Y-327500D02*
D03*
X222750Y-328750D02*
D03*
M02*
